Coordinates
version=1
nRows=4
nColumns=107
inDegrees=yes

Units are S.I. units (second, meters, Newtons, ...)
If the header above contains a line with 'inDegrees', this indicates whether rotational values are in degrees (yes) or radians (no).

endheader
time	sternoclavicular_r2	sternoclavicular_r3	unrotscap_r3	unrotscap_r2	acromioclavicular_r2	acromioclavicular_r3	acromioclavicular_r1	unrothum_r1	unrothum_r3	unrothum_r2	elv_angle	shoulder_elv	shoulder1_r2	shoulder_rot	elbow_flexion	pro_sup	deviation	flexion	proximal_distal_r1	proximal_distal_r3	cmc_flexion	cmc_abduction	mp_flexion	ip_flexion	mcp2_flexion	mcp2_abduction	pm2_flexion	md2_flexion	mcp3_flexion	mcp3_abduction	pm3_flexion	md3_flexion	mcp4_flexion	mcp4_abduction	pm4_flexion	md4_flexion	mcp5_flexion	mcp5_abduction	pm5_flexion	md5_flexion	bicpt_tx	bicpt_ty	bicpt_tz	bicpt2_tx	bicpt2_ty	bicpt2_tz	ptpt_tx	ptpt_ty	ptpt_tz	FCUpt_tx	FCUpt_ty	FCUpt_tz	EDCpt_tx	EDCpt_ty	EDCpt_tz	APLpt_tx	APLpt_ty	APLpt_tz	FPLpt_tx	FPLpt_ty	FPLpt_tz	FPLpt2_tx	FPLpt2_ty	FPLpt2_tz	PEC1pt2_tx	PEC1pt2_ty	PEC1pt2_tz	PEC1pt3_tx	PEC1pt3_ty	PEC1pt3_tz	PEC2pt2_tx	PEC2pt2_ty	PEC2pt2_tz	PEC2pt3_tx	PEC2pt3_ty	PEC2pt3_tz	PEC3pt2_tx	PEC3pt2_ty	PEC3pt2_tz	PEC3pt3_tx	PEC3pt3_ty	PEC3pt3_tz	DELT2pt2a_tx	DELT2pt2a_ty	DELT2pt2a_tz	DELT2pt2_tx	DELT2pt2_ty	DELT2pt2_tz	LAT1pt2_tx	LAT1pt2_ty	LAT1pt2_tz	LAT1pt3_tx	LAT1pt3_ty	LAT1pt3_tz	LAT2pt2_tx	LAT2pt2_ty	LAT2pt2_tz	LAT2pt3_tx	LAT2pt3_ty	LAT2pt3_tz	LAT3pt2_tx	LAT3pt2_ty	LAT3pt2_tz	LAT3pt3_tx	LAT3pt3_ty	LAT3pt3_tz
      1.53333333	     -0.31404431	      0.13301435	     -0.13301435	      0.31404431	     -0.06358759	      0.51389250	      0.23099114	     -0.23099114	     -0.51389250	      0.06358759	    102.37700090	     74.35278304	     -1.78681574	    -37.25867183	     29.49208447	     70.63993235	      0.28326797	     -0.25351900	      0.31875695	     -0.12675950	     25.72848258	    -17.59399727	      3.51095207	     -0.21446176	     20.35911075	      4.48346390	     15.42076651	    -19.01636263	     16.68496248	     -2.38841788	     15.54759014	     15.88919947	     12.97143888	     -4.79638842	      9.65117989	     23.06654099	      0.87667805	    -10.45569979	     12.29438434	      5.00107965	      0.00087551	     -0.03098024	     -0.00484447	      0.01555780	     -0.01821167	     -0.00354104	      0.00233051	     -0.06827501	     -0.00574043	      0.01100990	     -0.18272440	     -0.00025044	     -0.00847677	      0.00277151	     -0.00032794	      0.00020556	      0.00008223	      0.00041113	      0.00026312	      0.00078937	      0.00044402	     -0.00000125	     -0.00027546	     -0.00033055	      0.00243712	      0.00855058	      0.00594823	     -0.00797228	      0.01924913	     -0.01825775	      0.00243712	      0.00855058	      0.00594823	      0.00053699	      0.01784468	     -0.00937672	      0.00387866	      0.00475487	      0.01579580	      0.00000000	      0.00739100	      0.00000000	     -0.00698091	     -0.03226087	     -0.00609195	      0.02174357	     -0.00101167	     -0.01133021	     -0.00086745	      0.01454011	     -0.00594823	      0.00239581	      0.02098403	     -0.01734900	     -0.00582431	      0.01259868	     -0.00532862	     -0.01214430	      0.02660180	     -0.02978245	     -0.02280154	      0.01408573	     -0.00714613	     -0.01511841	      0.03073251	     -0.03721773
      1.56666667	     -0.31409756	      0.13303690	     -0.13303690	      0.31409756	     -0.06359837	      0.51397963	      0.23103031	     -0.23103031	     -0.51397963	      0.06359837	    102.37313561	     74.36539020	     -1.78674828	    -37.26532540	     29.49590692	     70.63735665	      0.28329564	     -0.25353530	      0.31878162	     -0.12676765	     25.72883536	    -17.59469547	      3.51109739	     -0.21427276	     20.35689253	      4.48294072	     15.42062796	    -19.01654046	     16.68448012	     -2.38874114	     15.54793200	     15.88930601	     12.97204073	     -4.79681801	      9.65160470	     23.06658544	      0.87810658	    -10.45556165	     12.29476284	      5.00118181	      0.00087563	     -0.03098068	     -0.00484454	      0.01555795	     -0.01821271	     -0.00354141	      0.00233070	     -0.06827489	     -0.00574022	      0.01100962	     -0.18272447	     -0.00025047	     -0.00847646	      0.00277139	     -0.00032788	      0.00020557	      0.00008223	      0.00041114	      0.00026313	      0.00078939	      0.00044403	     -0.00000125	     -0.00027546	     -0.00033055	      0.00243753	      0.00855203	      0.00594924	     -0.00797363	      0.01925239	     -0.01826085	      0.00243753	      0.00855203	      0.00594924	      0.00053708	      0.01784771	     -0.00937831	      0.00387915	      0.00475567	      0.01579702	      0.00000000	      0.00739352	      0.00000000	     -0.00698209	     -0.03226634	     -0.00609404	      0.02174571	     -0.00101191	     -0.01133409	     -0.00086760	      0.01454258	     -0.00594924	      0.00239622	      0.02098758	     -0.01735194	     -0.00582529	      0.01260081	     -0.00532952	     -0.01214636	      0.02660631	     -0.02978750	     -0.02280541	      0.01408812	     -0.00714735	     -0.01512098	      0.03073772	     -0.03722404
      1.60000000	     -0.31428332	      0.13311558	     -0.13311558	      0.31428332	     -0.06363598	      0.51428361	      0.23116694	     -0.23116694	     -0.51428361	      0.06363598	    102.32329961	     74.40937045	     -1.78587848	    -36.94005425	     29.41934931	     70.42326484	      0.29094194	     -0.25541764	      0.32556499	     -0.12770882	     25.71159518	    -17.83790142	      3.92541881	      0.01090294	     20.29300961	      4.55889432	     16.25624925	    -19.57594350	     17.06269161	     -2.30759405	     16.42364144	     16.32573543	     13.59913243	     -4.96076317	     10.45231408	     23.87516678	      2.13972490	    -10.48684345	     12.43682785	      5.01009467	      0.00087310	     -0.03097191	     -0.00484313	      0.01557252	     -0.01819191	     -0.00357343	      0.00234652	     -0.06826466	     -0.00572297	      0.01098605	     -0.18273078	     -0.00025388	     -0.00845077	      0.00276066	     -0.00032280	      0.00020670	      0.00008268	      0.00041339	      0.00026457	      0.00079371	      0.00044646	     -0.00000122	     -0.00027552	     -0.00033063	      0.00243898	      0.00855708	      0.00595275	     -0.00797834	      0.01926378	     -0.01827165	      0.00243898	      0.00855708	      0.00595275	      0.00053740	      0.01785826	     -0.00938386	      0.00388084	      0.00475849	      0.01580128	      0.00000000	      0.00740232	      0.00000000	     -0.00698622	     -0.03228543	     -0.00610135	      0.02163245	     -0.00100024	     -0.01115059	     -0.00086811	      0.01455118	     -0.00595275	      0.00239764	      0.02100000	     -0.01736220	     -0.00582874	      0.01260827	     -0.00533268	     -0.01215354	      0.02662204	     -0.02980511	     -0.02281889	      0.01409645	     -0.00715157	     -0.01512992	      0.03075590	     -0.03724606
      1.63333333	     -0.31491215	      0.13338193	     -0.13338193	      0.31491215	     -0.06376331	      0.51531260	      0.23162947	     -0.23162947	     -0.51531260	      0.06376331	    102.10867828	     74.55825165	     -1.78213263	    -35.96359206	     29.35105117	     69.49124512	      0.29886544	     -0.25262962	      0.33249305	     -0.12631481	     25.76300799	    -17.75164410	      3.48760163	      0.29616229	     20.75619427	      4.40254495	     16.42807397	    -20.26889648	     17.72017857	     -2.42665240	     16.27104499	     15.80419828	     14.21455838	     -5.04594137	     10.65773464	     23.38361514	      2.61893926	    -10.61256747	     12.77839774	      5.00313303	      0.00087084	     -0.03096408	     -0.00484187	      0.01563467	     -0.01817336	     -0.00371209	      0.00241538	     -0.06822013	     -0.00564789	      0.01088359	     -0.18275810	     -0.00026829	     -0.00833893	      0.00271413	     -0.00030097	      0.00020503	      0.00008201	      0.00041007	      0.00026244	      0.00078732	      0.00044287	     -0.00000132	     -0.00027534	     -0.00033041	      0.00244386	      0.00857421	      0.00596467	     -0.00799431	      0.01930232	     -0.01830821	      0.00244386	      0.00857421	      0.00596467	      0.00053848	      0.01789400	     -0.00940263	      0.00388657	      0.00476801	      0.01581566	      0.00000000	      0.00743217	      0.00000000	     -0.00700020	     -0.03235002	     -0.00612614	      0.02128389	     -0.00096534	     -0.01060591	     -0.00086985	      0.01458029	     -0.00596467	      0.00240243	      0.02104201	     -0.01739694	     -0.00584040	      0.01263349	     -0.00534335	     -0.01217786	      0.02667531	     -0.02986475	     -0.02286455	      0.01412466	     -0.00716588	     -0.01516019	      0.03081744	     -0.03732058
